<?xml version="1.0" standalone="no"?>
<!DOCTYPE svg PUBLIC "-//W3C//DTD SVG 20010904//EN"
 "http://www.w3.org/TR/2001/REC-SVG-20010904/DTD/svg10.dtd">
<svg version="1.0" xmlns="http://www.w3.org/2000/svg"
 width="1200.000000pt" height="1200.000000pt" viewBox="0 0 1200.000000 1200.000000"
 preserveAspectRatio="xMidYMid meet">
<metadata>
Created by potrace 1.14, written by Peter Selinger 2001-2017
</metadata>
<g transform="translate(0.000000,1200.000000) scale(0.100000,-0.100000)"
fill="#000000" stroke="none">
<path d="M5530 8964 c-250 -146 -765 -446 -1145 -666 -379 -220 -693 -403
-697 -406 -3 -4 -8 -179 -9 -390 l-3 -382 223 -129 c123 -71 227 -133 231
-138 5 -4 -94 -68 -221 -141 l-229 -133 -1 -322 c0 -177 -3 -349 -5 -382 l-5
-61 643 -371 c1393 -804 1688 -973 1693 -973 3 0 368 211 813 469 444 258 960
557 1147 666 187 108 343 200 347 204 3 3 8 178 9 389 l3 383 -232 132 c-127
73 -231 134 -231 137 0 3 103 65 229 138 l230 134 0 326 c1 180 3 352 6 382
l6 56 -224 128 c-122 71 -275 159 -338 196 -531 309 -1770 1020 -1777 1019 -4
0 -213 -120 -463 -265z m1299 -987 c794 -459 822 -476 799 -491 -73 -47 -425
-246 -435 -246 -7 0 -275 151 -595 336 -321 185 -588 338 -594 341 -8 3 -997
-561 -1175 -670 -12 -7 -71 23 -247 124 -197 114 -229 136 -216 146 9 7 181
108 383 224 201 117 562 327 801 466 239 139 440 251 445 249 6 -2 381 -218
834 -479z m-572 -979 c145 -83 260 -155 256 -158 -4 -4 -118 -71 -252 -149
-225 -131 -247 -142 -270 -131 -54 24 -511 293 -506 298 6 6 499 292 504 292
2 0 122 -68 268 -152z m-1280 -630 c820 -475 1020 -588 1034 -585 9 2 267 150
575 329 307 179 569 330 581 337 20 10 47 -3 252 -121 127 -73 227 -136 223
-140 -13 -12 -1624 -948 -1632 -948 -5 0 -57 28 -117 63 -203 119 -827 479
-1248 722 -132 76 -253 146 -269 155 l-29 18 94 55 c52 30 153 89 224 131 72
41 135 76 142 76 6 0 83 -41 170 -92z"/>
<path d="M3010 3631 c-94 -29 -176 -106 -210 -199 -52 -138 -44 -348 17 -466
23 -45 93 -116 138 -139 88 -46 275 -31 368 29 l37 24 0 179 0 178 -135 0
-135 0 0 -63 0 -64 70 0 70 0 0 -75 c0 -69 -2 -76 -26 -92 -38 -24 -133 -29
-173 -9 -43 23 -86 86 -102 149 -16 66 -17 229 -1 283 15 51 48 100 85 128 22
16 43 21 91 21 54 0 69 -5 100 -29 21 -15 41 -39 46 -52 5 -13 13 -24 18 -24
4 0 28 20 52 45 l44 45 -31 37 c-16 21 -58 53 -92 71 -55 28 -72 32 -134 31
-40 0 -83 -4 -97 -8z"/>
<path d="M8049 3613 c-14 -37 -269 -794 -269 -799 0 -2 33 -4 73 -4 l74 0 28
95 28 95 112 0 113 0 7 -27 c3 -16 15 -58 27 -95 l20 -68 74 0 c41 0 74 3 73
8 0 4 -62 189 -137 412 l-138 405 -37 3 c-33 3 -38 0 -48 -25z m115 -475 l6
-28 -75 0 c-41 0 -75 3 -75 6 0 6 28 102 67 229 5 14 16 -10 38 -80 18 -55 35
-112 39 -127z"/>
<path d="M8680 3225 l0 -415 265 0 265 0 0 60 0 60 -190 0 -191 0 3 355 3 355
-77 0 -78 0 0 -415z"/>
<path d="M3942 3413 c-18 -8 -46 -31 -62 -49 -16 -19 -31 -34 -33 -34 -2 0 -3
20 -2 45 l3 45 -79 0 -79 0 0 -305 0 -305 74 0 74 0 4 193 c3 158 6 198 21
224 49 92 180 108 241 30 l24 -31 33 66 c29 59 31 69 18 84 -41 49 -171 70
-237 37z"/>
<path d="M4647 3416 c-65 -24 -128 -81 -165 -151 -24 -45 -27 -61 -27 -150 0
-89 3 -105 27 -151 93 -177 318 -217 463 -83 65 60 90 124 90 234 0 73 -5 100
-24 143 -29 65 -104 134 -168 156 -56 19 -144 20 -196 2z m180 -137 c91 -84
82 -271 -17 -337 -27 -19 -44 -23 -78 -19 -79 9 -132 85 -132 192 0 73 24 130
71 169 29 24 39 28 81 24 33 -4 57 -13 75 -29z"/>
<path d="M7230 3419 c-14 -5 -42 -26 -62 -47 l-38 -36 0 42 0 42 -76 0 -76 0
4 -412 3 -413 78 -3 77 -3 0 135 0 135 48 -27 c39 -22 59 -27 117 -27 78 1
113 15 166 67 52 53 72 110 77 219 7 152 -28 241 -116 303 -36 25 -54 31 -110
33 -37 2 -78 -2 -92 -8z m106 -126 c45 -29 67 -88 67 -178 0 -131 -47 -195
-142 -195 -50 0 -96 37 -111 88 -28 103 -3 248 51 286 30 21 103 21 135 -1z"/>
<path d="M5266 3403 c2 -10 27 -139 54 -288 28 -148 53 -278 56 -287 4 -15 17
-18 69 -18 l64 0 10 38 c5 20 22 90 37 155 15 64 31 117 34 117 4 0 25 -69 46
-152 l40 -153 66 -3 66 -3 11 53 c33 163 81 484 81 539 0 17 -7 19 -65 19
l-65 0 0 -78 c0 -75 -25 -310 -34 -319 -4 -4 -13 24 -78 242 l-24 80 -41 3
-40 3 -43 -173 c-24 -95 -45 -167 -47 -161 -3 7 -19 99 -37 205 l-32 193 -66
3 c-59 3 -66 1 -62 -15z"/>
<path d="M6150 3202 c0 -252 8 -289 70 -346 82 -74 198 -74 280 0 l39 35 3
-38 3 -38 69 -3 69 -3 -7 38 c-3 21 -6 158 -6 306 l0 267 -75 0 -75 0 0 -195
c0 -220 -7 -251 -62 -285 -37 -23 -66 -25 -102 -9 -49 23 -56 58 -56 283 l0
206 -75 0 -75 0 0 -218z"/>
</g>
</svg>
